<svg xmlns="http://www.w3.org/2000/svg" viewBox="0 0 24 24">
  <!-- rounded square outline -->
  <rect x="3" y="3" width="18" height="18" rx="4" fill="none" stroke="#020617" stroke-width="1.8"></rect>
  
  <!-- WhatsApp circle + phone -->
  <path fill="#020617" d="
    M12 7.2c-2.7 0-4.8 2.1-4.8 4.8 0 0.9 0.2 1.7 0.6 2.4l-0.4 1.5 
    1.6-0.4c0.7 0.4 1.5 0.6 2.4 0.6 2.7 0 4.8-2.1 4.8-4.8 
    0-2.7-2.1-4.8-4.8-4.8zm2.3 6.7c-0.1 0.3-0.6 0.6-0.8 0.7 
    -0.2 0.1-0.4 0.1-0.7 0 -0.4-0.2-1-0.4-1.7-1.1 
    -0.6-0.6-1-1.3-1.1-1.7 -0.1-0.3 0-0.5 0-0.7 
    0.1-0.2 0.4-0.7 0.7-0.8 0.2-0.1 0.4-0.1 0.6 0 
    0.2 0.1 0.4 0.6 0.5 0.8 0.1 0.2 0.1 0.3 0 0.4 
    -0.1 0.1-0.2 0.2-0.3 0.3l-0.1 0.1c-0.1 0.1-0.1 0.2 0 0.4 
    0.2 0.4 0.9 1.1 1.3 1.3 0.1 0.1 0.3 0.1 0.4 0 
    0.1-0.1 0.2-0.2 0.4-0.3l0.1-0.1c0.1-0.1 0.3-0.1 0.4 0 
    0.2 0.1 0.7 0.3 0.8 0.5 0.2 0.1 0.2 0.3 0.2 0.5z"></path>
</svg>
